<mxfile host="app.diagrams.net" modified="2024-03-24T02:51:03.792Z" agent="Mozilla/5.0 (Windows NT 10.0; Win64; x64) AppleWebKit/537.36 (KHTML, like Gecko) Chrome/122.0.0.0 Safari/537.36" etag="0S_LKaVNORHi-x2gtUW7" version="24.0.8" type="device">
  <diagram name="Page-1" id="hxpdRI3tjbC8Wo9Y-EgC">
    <mxGraphModel dx="1221" dy="759" grid="1" gridSize="10" guides="1" tooltips="1" connect="1" arrows="1" fold="1" page="1" pageScale="1" pageWidth="850" pageHeight="1100" math="0" shadow="0">
      <root>
        <mxCell id="0" />
        <mxCell id="1" parent="0" />
        <mxCell id="-FXFX23JRfRhXPaG4-Ew-1" value="frame" style="shape=umlFrame;whiteSpace=wrap;html=1;pointerEvents=0;" vertex="1" parent="1">
          <mxGeometry x="140" y="70" width="580" height="740" as="geometry" />
        </mxCell>
        <mxCell id="-FXFX23JRfRhXPaG4-Ew-3" value="" style="rounded=0;whiteSpace=wrap;html=1;" vertex="1" parent="1">
          <mxGeometry x="240" y="110" width="390" height="660" as="geometry" />
        </mxCell>
        <mxCell id="-FXFX23JRfRhXPaG4-Ew-4" value="Actor" style="shape=umlActor;verticalLabelPosition=bottom;verticalAlign=top;html=1;outlineConnect=0;" vertex="1" parent="1">
          <mxGeometry x="170" y="410" width="30" height="60" as="geometry" />
        </mxCell>
        <mxCell id="-FXFX23JRfRhXPaG4-Ew-5" value="Actor" style="shape=umlActor;verticalLabelPosition=bottom;verticalAlign=top;html=1;outlineConnect=0;" vertex="1" parent="1">
          <mxGeometry x="660" y="400" width="30" height="60" as="geometry" />
        </mxCell>
        <mxCell id="-FXFX23JRfRhXPaG4-Ew-9" style="rounded=0;orthogonalLoop=1;jettySize=auto;html=1;exitX=0;exitY=1;exitDx=0;exitDy=0;endArrow=none;endFill=0;" edge="1" parent="1" source="-FXFX23JRfRhXPaG4-Ew-6" target="-FXFX23JRfRhXPaG4-Ew-4">
          <mxGeometry relative="1" as="geometry" />
        </mxCell>
        <mxCell id="-FXFX23JRfRhXPaG4-Ew-6" value="Daftar Baru&lt;div&gt;&lt;br&gt;&lt;/div&gt;" style="ellipse;whiteSpace=wrap;html=1;" vertex="1" parent="1">
          <mxGeometry x="280" y="300" width="90" height="50" as="geometry" />
        </mxCell>
      </root>
    </mxGraphModel>
  </diagram>
</mxfile>
